<svg width="96" height="96" xmlns="http://www.w3.org/2000/svg" xmlns:xlink="http://www.w3.org/1999/xlink" xml:space="preserve" overflow="hidden"><defs><clipPath id="clip0"><rect x="592" y="312" width="96" height="96"/></clipPath></defs><g fill="#00bcf2" clip-path="url(#clip0)" transform="translate(-592 -312)"><path d="M633 339 653 351.9 633 364.81 633 339Z"/><path d="M668 334 668 370 612 370 612 334ZM676 372 674 372 674 331 676 331C677.105 331 678 330.105 678 329 678 327.895 677.105 327 676 327L642 327 642 325C642 323.895 641.105 323 640 323 638.895 323 638 323.895 638 325L638 327 604 327C602.895 327 602 327.895 602 329 602 330.105 602.895 331 604 331L606 331 606 372 604 372C602.895 372 602 372.895 602 374 602 375.105 602.895 376 604 376L634.54 376 619.14 391.4C618.359 392.19 618.365 393.464 619.155 394.245 619.945 395.026 621.219 395.02 622 394.23L638 378.23 638 396C638 397.105 638.895 398 640 398 641.105 398 642 397.105 642 396L642 378.2 658 394.2C658.781 394.982 660.049 394.982 660.83 394.2 661.612 393.419 661.612 392.151 660.83 391.37L645.46 376 676 376C677.105 376 678 375.105 678 374 678 372.895 677.105 372 676 372Z"/></g></svg>